<?xml version="1.0" encoding="utf-8"?>
<!-- Generator: Adobe Illustrator 24.1.2, SVG Export Plug-In . SVG Version: 6.00 Build 0)  -->
<svg version="1.1" id="Layer_1" xmlns="http://www.w3.org/2000/svg" xmlns:xlink="http://www.w3.org/1999/xlink" x="0px" y="0px"
	 viewBox="0 0 490 420" style="enable-background:new 0 0 490 420;" xml:space="preserve">
<style type="text/css">
	.st0{fill:#FFFFFF;}
</style>
<g>
	<path class="st0" d="M87.5,227.5c-5.2,0-10.3-2.3-13.7-6.6l-70-87.5c-6-7.6-4.8-18.6,2.7-24.6c7.6-6.1,18.6-4.8,24.6,2.7L92.3,188
		l92.4-46.2c8.6-4.3,19.2-0.8,23.5,7.8c4.3,8.6,0.8,19.1-7.8,23.5l-105,52.5C92.8,226.9,90.2,227.5,87.5,227.5L87.5,227.5z"/>
	<path class="st0" d="M280,420c-65.6,0-126.3-29.8-166.4-81.8c-5.9-7.7-4.5-18.7,3.2-24.5c7.7-5.9,18.7-4.4,24.5,3.1
		c33.4,43.3,84,68.2,138.6,68.2c96.5,0,175-78.5,175-175S376.5,35,280,35s-175,78.5-175,175c0,9.7-7.8,17.5-17.5,17.5
		S70,219.7,70,210C70,94.2,164.2,0,280,0s210,94.2,210,210S395.8,420,280,420L280,420z"/>
	<path class="st0" d="M332.5,315c-4.5,0-9-1.7-12.4-5.1l-70-70c-3.3-3.3-5.1-7.7-5.1-12.4v-105c0-9.7,7.8-17.5,17.5-17.5
		s17.5,7.8,17.5,17.5v97.8l64.9,64.9c6.8,6.8,6.8,17.9,0,24.7C341.5,313.3,337,315,332.5,315L332.5,315z"/>
</g>
</svg>
