<?xml version="1.0" encoding="utf-8"?>
<!-- Generator: Adobe Illustrator 24.1.2, SVG Export Plug-In . SVG Version: 6.00 Build 0)  -->
<svg version="1.1" id="Layer_1" xmlns="http://www.w3.org/2000/svg" xmlns:xlink="http://www.w3.org/1999/xlink" x="0px" y="0px"
	 viewBox="0 0 513.3 513.3" style="enable-background:new 0 0 513.3 513.3;" xml:space="preserve">
<style type="text/css">
	.st0{fill:#1F3D83;}
</style>
<g>
	<path class="st0" d="M186.7,280c-6.4,0-11.7-5.2-11.7-11.7V140c0-6.4,5.2-11.7,11.7-11.7s11.7,5.2,11.7,11.7v128.3
		c0,3.1-1.2,6.1-3.4,8.3C192.7,278.8,189.8,280,186.7,280L186.7,280z"/>
	<path class="st0" d="M210,350h-23.3c-4.7,0-9-2.8-10.8-7.2c-1.8-4.4-0.8-9.4,2.6-12.8c2.2-2.2,5.2-3.4,8.3-3.4s6.1,1.2,8.3,3.4
		c4.6,4,11.5,3.7,15.8-0.6c4.3-4.3,4.6-11.2,0.6-15.8c-6.7-6.3-15.5-9.9-24.7-9.9s-18.1,3.5-24.7,9.9c-6.6,6.6-10.3,15.5-10.3,24.7
		c0,4,0.8,7.9,2.1,11.7h-2.1c-6.4,0-11.7,5.2-11.7,11.7s5.2,11.7,11.7,11.7H210c6.4,0,11.7-5.2,11.7-11.7S216.4,350,210,350L210,350
		z"/>
	<path class="st0" d="M268.3,262.5c0,9.7-7.8,17.5-17.5,17.5c-9.7,0-17.5-7.8-17.5-17.5c0-9.7,7.8-17.5,17.5-17.5
		C260.5,245,268.3,252.8,268.3,262.5"/>
	<path class="st0" d="M342,280h-27c-6.4,0-11.7-5.2-11.7-11.7c0-6.4,5.2-11.7,11.7-11.7h27c2.8-0.1,5.3-1.8,6.5-4.3
		c2.1-3.6,2.1-8.1,0-11.7L316.1,193l0,0c-3.6-5.3-2.2-12.6,3.2-16.2c5.3-3.6,12.6-2.2,16.2,3.2l32.7,48.1c3.3,5.3,5.2,11.4,5.3,17.7
		c0.2,6.3-1.4,12.4-4.4,17.9c-2.6,4.9-6.5,9-11.3,11.9C353,278.4,347.5,280,342,280L342,280z"/>
	<path class="st0" d="M256.7,513.3c-68.1,0-133.4-27-181.5-75.2C27,390,0,324.7,0,256.7S27,123.3,75.2,75.2
		C123.3,27,188.6,0,256.7,0S390,27,438.2,75.2c48.1,48.1,75.2,113.4,75.2,181.5s-27,133.4-75.2,181.5S324.7,513.3,256.7,513.3z
		 M256.7,23.3c-61.9,0-121.2,24.6-165,68.3c-43.8,43.8-68.3,103.1-68.3,165s24.6,121.2,68.3,165c43.8,43.8,103.1,68.3,165,68.3
		s121.2-24.6,165-68.3c43.8-43.8,68.3-103.1,68.3-165c0-41-10.8-81.2-31.3-116.7S408.8,75,373.3,54.5
		C337.9,34.1,297.6,23.3,256.7,23.3L256.7,23.3z"/>
</g>
</svg>
