<?xml version="1.0" encoding="utf-8"?>
<!-- Generator: Adobe Illustrator 24.1.2, SVG Export Plug-In . SVG Version: 6.00 Build 0)  -->
<svg version="1.1" id="Layer_1" xmlns="http://www.w3.org/2000/svg" xmlns:xlink="http://www.w3.org/1999/xlink" x="0px" y="0px"
	 viewBox="0 0 470.4 470.4" style="enable-background:new 0 0 470.4 470.4;" xml:space="preserve">
<style type="text/css">
	.st0{fill:#FFFFFF;}
</style>
<g>
	<path class="st0" d="M10.1,0C4.4,0.6,0,5.4,0,11.2v119.4c0,3,1.1,5.9,3.2,8c2.1,2.1,5,3.3,8,3.3s5.9-1.2,8-3.3c2.1-2.1,3.3-5,3.2-8
		V22.4h108.3c3,0,5.9-1.1,8-3.2c2.1-2.1,3.3-5,3.3-8s-1.2-5.9-3.3-8c-2.1-2.1-5-3.3-8-3.2H11.2C10.8,0,10.5,0,10.1,0L10.1,0z
		 M338.6,0c-3,0.1-5.8,1.5-7.8,3.6c-2,2.2-3,5.1-2.9,8.1c0.1,3,1.5,5.8,3.7,7.8c2.2,2,5.1,3,8.1,2.9H448v108.2c0,3,1.1,5.9,3.2,8
		c2.1,2.1,5,3.3,8,3.3s5.9-1.2,8-3.3c2.1-2.1,3.3-5,3.2-8V11.2c0-6.2-5-11.2-11.2-11.2H339.7C339.3,0,339,0,338.6,0L338.6,0z
		 M10,328.3c-5.8,0.6-10.1,5.6-10,11.4v119.5c0,6.2,5,11.2,11.2,11.2h119.5c3,0,5.9-1.1,8-3.2c2.1-2.1,3.3-5,3.3-8s-1.2-5.9-3.3-8
		c-2.1-2.1-5-3.3-8-3.2H22.4V339.7c0.1-3.2-1.3-6.3-3.6-8.5C16.4,329,13.2,328,10,328.3L10,328.3z M458,328.3
		c-5.8,0.6-10.1,5.6-10,11.4V448H339.7c-3,0-5.9,1.1-8,3.2c-2.1,2.1-3.3,5-3.3,8s1.2,5.9,3.3,8c2.1,2.1,5,3.3,8,3.2h119.5
		c6.2,0,11.2-5,11.2-11.2V339.7c0.1-3.2-1.3-6.3-3.6-8.5C464.4,329,461.2,328,458,328.3L458,328.3z"/>
</g>
</svg>
