<?xml version="1.0" encoding="utf-8"?>
<!-- Generator: Adobe Illustrator 24.1.2, SVG Export Plug-In . SVG Version: 6.00 Build 0)  -->
<svg version="1.1" id="Layer_1" xmlns="http://www.w3.org/2000/svg" xmlns:xlink="http://www.w3.org/1999/xlink" x="0px" y="0px"
	 viewBox="0 0 224 224" style="enable-background:new 0 0 224 224;" xml:space="preserve">
<style type="text/css">
	.st0{fill:#E2A324;}
</style>
<g>
	<path class="st0" d="M112,0C50.2,0,0,50.2,0,112c0,61.8,50.2,112,112,112c61.8,0,112-50.3,112-112C224,50.2,173.8,0,112,0z
		 M112,207.2c-52.5,0-95.2-42.7-95.2-95.2c0-52.5,42.7-95.2,95.2-95.2c52.5,0,95.2,42.7,95.2,95.2
		C207.2,164.5,164.5,207.2,112,207.2z M170.6,69.2c3.5,3,4,8.3,1,11.8L110,153.8c-1.6,1.8-3.9,3-6.4,3c-2,0-4-0.7-5.5-2.1
		l-44.8-39.2c-3.5-3.1-3.8-8.4-0.8-11.9c3.1-3.5,8.4-3.8,11.9-0.8l38.4,33.6l56.1-66.3C161.8,66.6,167.1,66.2,170.6,69.2L170.6,69.2
		z"/>
</g>
</svg>
