<?xml version="1.0" encoding="utf-8"?>
<!-- Generator: Adobe Illustrator 24.1.2, SVG Export Plug-In . SVG Version: 6.00 Build 0)  -->
<svg version="1.1" id="Layer_1" xmlns="http://www.w3.org/2000/svg" xmlns:xlink="http://www.w3.org/1999/xlink" x="0px" y="0px"
	 viewBox="0 0 437.5 367.5" style="enable-background:new 0 0 437.5 367.5;" xml:space="preserve">
<style type="text/css">
	.st0{fill:#E99C06;}
</style>
<g>
	<path class="st0" d="M428.8,175h-28.4l-30-105h40.9c2.3,0,4.5-0.9,6.2-2.6s2.6-3.9,2.6-6.2v-35c0-2.3-0.9-4.5-2.6-6.2
		s-3.9-2.6-6.2-2.6H253.5C245.4,6.5,232.5,0,218.8,0S192.1,6.5,184,17.5H26.3c-4.8,0-8.8,3.9-8.8,8.8v35c0,2.3,0.9,4.5,2.6,6.2
		s3.9,2.6,6.2,2.6h40.9l-30,105H8.8C4,175.1,0,179,0,183.9C0,212,15,238,39.4,252.1s54.4,14.1,78.8,0s39.4-40.1,39.4-68.2
		c0-2.3-0.9-4.5-2.6-6.2s-3.9-2.6-6.2-2.6h-28.4l-30-105H184c2.4,3.2,5.3,6.1,8.5,8.5V315h-26.3c-4.8,0-8.8,3.9-8.8,8.8v35
		c0,2.3,0.9,4.5,2.6,6.2s3.9,2.6,6.2,2.6h105c2.3,0,4.5-0.9,6.2-2.6c1.6-1.6,2.6-3.9,2.6-6.2v-35c0-2.3-0.9-4.5-2.6-6.2
		s-3.9-2.6-6.2-2.6H245V78.5c3.2-2.4,6.1-5.3,8.5-8.5h93.6l-30,105h-28.4c-4.8,0-8.8,3.9-8.8,8.8c0,28.1,15,54.1,39.4,68.2
		s54.4,14.1,78.8,0s39.4-40.1,39.4-68.2c0-2.3-0.9-4.5-2.6-6.2S431.1,175,428.8,175L428.8,175z M78.8,245c-14.7,0-28.9-5.3-40.1-15
		c-11.1-9.6-18.4-23-20.5-37.5h121.1c-2.1,14.6-9.4,27.9-20.5,37.5C107.7,239.7,93.5,245,78.8,245L78.8,245z M102.2,175H55.4
		l23.4-81.9L102.2,175z M236.3,332.5h26.3V350H175v-17.5h26.3c2.3,0,4.5-0.9,6.2-2.6s2.6-3.9,2.6-6.2V86.6c5.8,1.2,11.7,1.2,17.5,0
		v237.1c0,2.3,0.9,4.5,2.6,6.2S233.9,332.5,236.3,332.5z M243.4,35c2.1,5.6,2.1,11.9,0,17.5c-2.6,7.4-8.5,13.3-15.9,15.9
		c-5.6,2.1-11.9,2.1-17.5,0c-7.4-2.6-13.3-8.5-15.9-15.9c-2.3-6.5-1.9-13.7,1-20s8.3-11.1,14.9-13.4s13.7-1.9,20,1
		S241.1,28.5,243.4,35L243.4,35z M78.8,52.5H35V35h140.9c-1.2,5.8-1.2,11.7,0,17.5H78.8z M261.6,52.5c1.2-5.8,1.2-11.7,0-17.5h140.9
		v17.5H261.6z M358.8,93.1l23.4,81.9h-46.8L358.8,93.1z M358.8,245c-14.7,0-28.9-5.3-40.1-15c-11.1-9.6-18.4-23-20.5-37.5h121.1
		c-2.1,14.6-9.4,27.9-20.5,37.5C387.7,239.7,373.5,245,358.8,245L358.8,245z"/>
</g>
</svg>
