<?xml version="1.0" encoding="utf-8"?>
<!-- Generator: Adobe Illustrator 24.1.2, SVG Export Plug-In . SVG Version: 6.00 Build 0)  -->
<svg version="1.1" id="Layer_1" xmlns="http://www.w3.org/2000/svg" xmlns:xlink="http://www.w3.org/1999/xlink" x="0px" y="0px"
	 viewBox="0 0 482.9 482.9" style="enable-background:new 0 0 482.9 482.9;" xml:space="preserve">
<style type="text/css">
	.st0{fill:#FFFFFF;}
</style>
<g>
	<path class="st0" d="M0,0v482.9h482.9l0-482.9L0,0z M364.9,471.9v-9.1h-11v9.1h-107v-9.1h-11v9.1H129v-9.1h-11v9.1H11v-107h9.1v-11
		H11v-107h9.1v-11H11V129h9.1v-11H11V11h107v9.1h11V11h107v9.1h11V11h107v9.1h11V11h107v107h-9.2v11h9.2v107h-9.2v11h9.2v107h-9.2
		v11h9.2v107H364.9z"/>
	<path class="st0" d="M167.7,353.9h29.5v11h-29.5V353.9z"/>
	<path class="st0" d="M285.7,353.9h29.5v11h-29.5V353.9z"/>
	<path class="st0" d="M49.6,353.9h29.5v11H49.6V353.9z"/>
	<path class="st0" d="M403.8,353.9h29.5v11h-29.5V353.9z"/>
	<path class="st0" d="M167.7,236h29.5v11h-29.5V236z"/>
	<path class="st0" d="M403.8,236h29.5v11h-29.5V236z"/>
	<path class="st0" d="M49.6,236h29.5v11H49.6V236z"/>
	<path class="st0" d="M285.7,236h29.5v11h-29.5V236z"/>
	<path class="st0" d="M285.7,118h29.5v11h-29.5V118z"/>
	<path class="st0" d="M49.6,118h29.5v11H49.6V118z"/>
	<path class="st0" d="M167.7,118h29.5v11h-29.5V118z"/>
	<path class="st0" d="M403.8,118h29.5v11h-29.5V118z"/>
	<path class="st0" d="M353.9,49.6h11v29.5h-11V49.6z"/>
	<path class="st0" d="M364.9,226.7h-11v9.3h-9.2v11h9.2v9.3h11v-9.3h9.3v-11h-9.3V226.7z"/>
	<path class="st0" d="M353.9,285.7h11v29.5h-11V285.7z"/>
	<path class="st0" d="M353.9,403.7h11v29.5h-11V403.7z"/>
	<path class="st0" d="M364.9,108.6h-11v9.3h-9.2v11h9.2v9.2h11V129h9.3v-11h-9.3V108.6z"/>
	<path class="st0" d="M353.9,167.7h11v29.5h-11V167.7z"/>
	<path class="st0" d="M364.9,344.7h-11v9.2h-9.2v11h9.2v9.3h11v-9.3h9.3v-11h-9.3V344.7z"/>
	<path class="st0" d="M236,49.6h11v29.5h-11V49.6z"/>
	<path class="st0" d="M246.9,226.7h-11v9.3h-9.3v11h9.3v9.3h11v-9.3h9.3v-11h-9.3V226.7z"/>
	<path class="st0" d="M236,285.7h11v29.5h-11V285.7z"/>
	<path class="st0" d="M236,167.7h11v29.5h-11V167.7z"/>
	<path class="st0" d="M236,403.7h11v29.5h-11V403.7z"/>
	<path class="st0" d="M246.9,108.6h-11v9.3h-9.3v11h9.3v9.2h11V129h9.3v-11h-9.3V108.6z"/>
	<path class="st0" d="M246.9,344.7h-11v9.2h-9.3v11h9.3v9.3h11v-9.3h9.3v-11h-9.3V344.7z"/>
	<path class="st0" d="M118,49.6h11v29.5h-11V49.6z"/>
	<path class="st0" d="M129,344.7h-11v9.2h-9.3v11h9.3v9.3h11v-9.3h9.2v-11H129L129,344.7z"/>
	<path class="st0" d="M118,403.7h11v29.5h-11V403.7z"/>
	<path class="st0" d="M129,108.6h-11v9.3h-9.3v11h9.3v9.2h11V129h9.2v-11H129L129,108.6z"/>
	<path class="st0" d="M118,167.7h11v29.5h-11V167.7z"/>
	<path class="st0" d="M118,285.7h11v29.5h-11V285.7z"/>
	<path class="st0" d="M129,226.7h-11v9.3h-9.3v11h9.3v9.3h11v-9.3h9.2v-11H129L129,226.7z"/>
</g>
</svg>
