<?xml version="1.0" encoding="utf-8"?>
<!-- Generator: Adobe Illustrator 24.1.2, SVG Export Plug-In . SVG Version: 6.00 Build 0)  -->
<svg version="1.1" id="Layer_1" xmlns="http://www.w3.org/2000/svg" xmlns:xlink="http://www.w3.org/1999/xlink" x="0px" y="0px"
	 viewBox="0 0 420.6 409.3" style="enable-background:new 0 0 420.6 409.3;" xml:space="preserve">
<style type="text/css">
	.st0{fill:#FFFFFF;}
</style>
<g>
	<path class="st0" d="M263.2,105.3h52.1v52.1c0,6.2,5,11.2,11.2,11.2h19.6c6.2,0,11.2-5,11.2-11.2v-52.1h52.1
		c6.2,0,11.2-5,11.2-11.2V74.5c0-6.2-5-11.2-11.2-11.2h-51.5V11.2c0-6.2-5-11.2-11.2-11.2H327c-6.2,0-11.2,5-11.2,11.2v52.1h-52.1
		c-6.2,0-11.2,5-11.2,11.2v19.6C252,100.2,257,105.3,263.2,105.3z"/>
	<path class="st0" d="M403.2,269.4c-8.4-8.4-21.3-8.4-29.7,0L336,306.9l-37.5-37.5c-7.8-8.4-21.3-9-29.7-1.1
		c-8.4,7.8-9,21.3-1.1,29.7c0.6,0.6,0.6,0.6,1.1,1.1l37.5,37.5l-37.5,37.5c-7.8,8.4-7.3,21.8,1.1,29.7c7.8,7.3,20.7,7.3,28.6,0
		l37.5-37.5l37.5,37.5c8.4,7.8,21.8,7.3,29.7-1.1c7.3-7.8,7.3-20.7,0-28.6l-37.5-37.5l37.5-37.5
		C411.6,290.6,411.6,277.2,403.2,269.4L403.2,269.4z"/>
	<path class="st0" d="M11.2,325.9h145.6c6.2,0,11.2-5,11.2-11.2v-19.6c0-6.2-5-11.2-11.2-11.2H11.2C5,283.9,0,289,0,295.1v19.6
		C0,320.9,5,325.9,11.2,325.9L11.2,325.9z"/>
	<path class="st0" d="M11.2,389.2h145.6c6.2,0,11.2-5,11.2-11.2v-19.6c0-6.2-5-11.2-11.2-11.2H11.2c-6.2,0-11.2,5-11.2,11.2V378
		C0,384.2,5,389.2,11.2,389.2L11.2,389.2z"/>
	<path class="st0" d="M11.2,105.3h145.6c6.2,0,11.2-5,11.2-11.2V74.5c0-6.2-5-11.2-11.2-11.2H11.2C5,63.3,0,68.3,0,74.5v19.6
		C0,100.2,5,105.3,11.2,105.3L11.2,105.3z"/>
</g>
</svg>
