<?xml version="1.0" encoding="utf-8"?>
<!-- Generator: Adobe Illustrator 24.1.2, SVG Export Plug-In . SVG Version: 6.00 Build 0)  -->
<svg version="1.1" id="Layer_1" xmlns="http://www.w3.org/2000/svg" xmlns:xlink="http://www.w3.org/1999/xlink" x="0px" y="0px"
	 viewBox="0 0 560 560" style="enable-background:new 0 0 560 560;" xml:space="preserve">
<style type="text/css">
	.st0{fill:#FFFFFF;}
</style>
<path class="st0" d="M69.9,0C31.5,0,0,31.5,0,69.9v116.6c0,38.4,31.5,70.1,69.9,70.1h116.8c38.4,0,69.9-31.8,69.9-70.1V69.9
	c0-38.4-31.5-69.9-69.9-69.9L69.9,0z M373.3,0c-38.4,0-69.9,31.5-69.9,69.9v116.6c0,38.4,31.5,70.1,69.9,70.1l116.8,0
	c38.4,0,69.9-31.8,69.9-70.1V69.9C560,31.5,528.5,0,490.1,0L373.3,0z M69.9,46.7h116.8c13.3,0,23.2,9.9,23.2,23.2v116.6
	c0,13.3-9.9,23.4-23.2,23.4l-116.8,0c-13.3,0-23.2-10.1-23.2-23.4V69.9C46.7,56.6,56.6,46.7,69.9,46.7L69.9,46.7z M373.3,46.7h116.8
	c13.3,0,23.2,9.9,23.2,23.2v116.6c0,13.3-9.9,23.4-23.2,23.4l-116.8,0c-13.3,0-23.2-10.1-23.2-23.4l0-116.6
	C350,56.6,359.9,46.7,373.3,46.7L373.3,46.7z M69.9,303.4C31.5,303.4,0,334.9,0,373.3v116.8C0,528.5,31.5,560,69.9,560h116.8
	c38.4,0,69.9-31.5,69.9-69.9V373.3c0-38.4-31.5-69.9-69.9-69.9H69.9z M373.3,303.4c-38.4,0-69.9,31.5-69.9,69.9v116.8
	c0,38.4,31.5,69.9,69.9,69.9h116.8c38.4,0,69.9-31.5,69.9-69.9V373.3c0-38.4-31.5-69.9-69.9-69.9H373.3z M69.9,350h116.8
	c13.3,0,23.2,9.9,23.2,23.2v116.8c0,13.3-9.9,23.2-23.2,23.2l-116.8,0c-13.3,0-23.2-9.9-23.2-23.2V373.3
	C46.7,359.9,56.6,350,69.9,350L69.9,350z M373.3,350h116.8c13.3,0,23.2,9.9,23.2,23.2v116.8c0,13.3-9.9,23.2-23.2,23.2l-116.8,0
	c-13.3,0-23.2-9.9-23.2-23.2l0-116.8C350,359.9,359.9,350,373.3,350L373.3,350z"/>
</svg>
