<?xml version="1.0" encoding="utf-8"?>
<!-- Generator: Adobe Illustrator 24.1.2, SVG Export Plug-In . SVG Version: 6.00 Build 0)  -->
<svg version="1.1" id="Layer_1" xmlns="http://www.w3.org/2000/svg" xmlns:xlink="http://www.w3.org/1999/xlink" x="0px" y="0px"
	 viewBox="0 0 403.2 470.4" style="enable-background:new 0 0 403.2 470.4;" xml:space="preserve">
<style type="text/css">
	.st0{fill:#FF6873;}
</style>
<g>
	<path class="st0" d="M403.2,117.6c0-27.8-22.6-50.4-50.4-50.4h-84V50.4c0-27.8-22.6-50.4-50.4-50.4h-33.6
		c-27.8,0-50.4,22.6-50.4,50.4v16.8h-84C22.6,67.2,0,89.8,0,117.6c0,22.1,14.5,40.8,34.3,47.5l14.3,257.7
		c1.5,26.7,23.6,47.6,50.3,47.6h205.2c26.7,0,48.8-20.9,50.3-47.6l14.3-257.7C388.7,158.4,403.2,139.7,403.2,117.6L403.2,117.6z
		 M168,50.4c0-9.3,7.5-16.8,16.8-16.8h33.6c9.3,0,16.8,7.5,16.8,16.8v16.8H168L168,50.4z M304.2,436.8H99c-8.9,0-16.3-7-16.8-15.9
		L68.2,168H335L321,420.9C320.5,429.8,313.1,436.8,304.2,436.8L304.2,436.8z M352.8,134.4H50.4c-9.3,0-16.8-7.5-16.8-16.8
		c0-9.3,7.5-16.8,16.8-16.8h302.4c9.3,0,16.8,7.5,16.8,16.8C369.6,126.9,362.1,134.4,352.8,134.4L352.8,134.4z M218.4,252v100.8
		c0,9.3-7.5,16.8-16.8,16.8c-9.3,0-16.8-7.5-16.8-16.8V252c0-9.3,7.5-16.8,16.8-16.8C210.9,235.2,218.4,242.7,218.4,252L218.4,252z
		 M285.6,252v100.8c0,9.3-7.5,16.8-16.8,16.8c-9.3,0-16.8-7.5-16.8-16.8V252c0-9.3,7.5-16.8,16.8-16.8S285.6,242.7,285.6,252
		L285.6,252z M151.2,252v100.8c0,9.3-7.5,16.8-16.8,16.8c-9.3,0-16.8-7.5-16.8-16.8V252c0-9.3,7.5-16.8,16.8-16.8
		C143.7,235.2,151.2,242.7,151.2,252L151.2,252z"/>
</g>
</svg>
