<?xml version="1.0" encoding="utf-8"?>
<!-- Generator: Adobe Illustrator 24.1.2, SVG Export Plug-In . SVG Version: 6.00 Build 0)  -->
<svg version="1.1" id="Layer_1" xmlns="http://www.w3.org/2000/svg" xmlns:xlink="http://www.w3.org/1999/xlink" x="0px" y="0px"
	 viewBox="0 0 511.2 284.6" style="enable-background:new 0 0 511.2 284.6;" xml:space="preserve">
<style type="text/css">
	.st0{fill:#E2A324;}
	.st1{fill-rule:evenodd;clip-rule:evenodd;fill:#E2A324;}
</style>
<g>
	<path class="st0" d="M488.7,201.6V22.4h-67.9v179.2H488.7z M511.1,11.2v201.6v0c0,3-1.2,5.8-3.3,7.9c-2.1,2.1-4.9,3.3-7.9,3.3
		h-90.3c-6.2,0-11.2-5-11.2-11.2V11.2v0c0-6.2,5-11.2,11.2-11.2H500c3,0,5.8,1.2,7.9,3.3c2.1,2.1,3.3,4.9,3.3,7.9L511.1,11.2z"/>
	<path class="st0" d="M222.9,229.4c-2.9,0-5.7-1.2-7.7-3.3c-2-2.1-3-5-2.9-7.9c0-6.2,5-11.2,11.2-11.2H262l81.5-37.8l0,0
		c1.5-0.7,3.1-1.1,4.8-1.1h50v-112h-50h-2.1L186.7,38.6L97.8,98c-5.1,3.4-12.1,2.1-15.6-3.1c-3.4-5.1-2.1-12.1,3.1-15.6l90.2-57.5
		c9.5-5.9,13.4-5.6,24.6-4.3l148.5,16h72.2v157.2l-69.9-0.3l-65.7,30.5c-6.6,2.9-14.2,8.6-19.8,8.6L222.9,229.4z M169,118.6
		c-5.4,3.1-12.3,1.2-15.3-4.1c-3.1-5.4-1.2-12.3,4.1-15.3L190.6,80c1.8-0.9,3.9-1.4,5.9-1.4c9.1,0.4,41.3,16.1,45.9,20.3
		c6.2,5.1,11.1,11.7,14.1,19.2c3.5,8.1,3.5,17.3,0,25.4c-5.9,11.1-15.4,19.9-27,24.8c-1.6,0.7-3.3,1.1-5,1.1h-30.1
		c-6.2,0-11.2-5-11.2-11.2c0-6.2,5-11.2,11.2-11.2h27.2c5.9-2.4,10.9-6.8,14.1-12.3c1.1-2.6,1.1-5.5,0-8.1
		c-1.9-4.2-4.8-7.9-8.3-10.9c-8.1-7.2-17.9-12.1-28.5-14.2L169,118.6z"/>
	<path class="st0" d="M14.1,128.3c1.3-2.9,3.7-5.2,6.8-6.2c3-1,6.4-0.7,9.1,1c2.8,1.6,4.7,4.3,5.3,7.5c0.6,3.1-0.1,6.4-2.1,9
		c-3.5,6.1-6.2,12.7-8,19.5c-1.8,7.2-2.7,14.5-2.7,21.9c0,21.6,8.6,42.3,24,57.5c15.4,15.3,36.2,23.8,57.8,23.7
		c15.5,0.1,30.8-4.4,43.8-12.8c13-8.4,23.5-20.3,30.1-34.3c1.2-2.7,3.5-4.9,6.3-5.9s5.9-0.9,8.6,0.3c2.7,1.2,4.8,3.5,5.9,6.3
		c1.1,2.8,0.9,5.9-0.3,8.6c-14.3,30.9-42.8,52.8-76.3,58.7c-33.5,6-67.8-4.8-91.9-28.8C11,234.8,0,208.3,0,180.7
		c0.1-9.2,1.3-18.4,3.6-27.3c2.3-8.8,5.9-17.2,10.6-24.9L14.1,128.3z M205.2,154.5c0.8,2.9,0.4,6-1.1,8.6c-1.5,2.6-4,4.5-6.9,5.2
		c-2.9,0.8-6,0.4-8.6-1.2c-2.6-1.5-4.5-4.1-5.2-7c-4.6-17.6-14.9-33.1-29.3-44.2c-14.2-11-31.7-16.9-49.6-16.8
		c-5.1,0.1-10.2,0.7-15.2,1.8c-5.1,1-10.1,2.5-14.9,4.5c-2.8,1.2-5.9,1.2-8.7,0.1s-5-3.4-6.1-6.2c-1.1-2.8-1.1-5.9,0-8.6
		c1.1-2.8,3.3-4.9,6.1-6.1c6.1-2.5,12.5-4.4,19-5.6c6.5-1.4,13-2.1,19.7-2.2c23-0.2,45.4,7.3,63.6,21.4
		C186.3,112.3,199.4,132.1,205.2,154.5L205.2,154.5z M37.2,102c2.1-2.4,5.2-3.7,8.4-3.7c3.2,0,6.3,1.4,8.4,3.9s3.1,5.6,2.6,8.8
		c-0.4,3.2-2.2,6-4.9,7.8l-1.1,1l-1.1,1.1l0,0c-4.8,4-11.8,3.5-16-1.1c-4-4.7-3.5-11.7,1.1-15.8l1.1-1.1L37.2,102z"/>
	<path class="st0" d="M454.3,164.1c3,0,5.8,1.2,7.9,3.3c2.1,2.1,3.3,4.9,3.3,7.9c0,3-1.2,5.8-3.3,7.9c-2.1,2.1-4.9,3.3-7.9,3.3h-1.5
		c-6.2,0-11.2-5-11.2-11.2c0-6.2,5-11.2,11.2-11.2L454.3,164.1z"/>
	<path class="st0" d="M224.3,206.9c3,0,5.8,1.2,7.9,3.3c2.1,2.1,3.3,4.9,3.3,7.9s-1.2,5.8-3.3,7.9c-2.1,2.1-4.9,3.3-7.9,3.3H152
		c-6.5,0-13-1.2-19-3.6c-5.9-2.4-11.1-6.3-15.2-11.2c-5.7-7-8.8-15.8-8.8-24.9c0.1-11.3,4.6-22.2,12.7-30.2c8-8,18.9-12.5,30.2-12.6
		h72.5c6.2,0,11.2,5,11.2,11.2c0,6.2-5,11.2-11.2,11.2h-72.5c-5.4,0.1-10.5,2.2-14.3,6c-3.8,3.8-6,8.9-6.1,14.2c0,2,0.3,4,1,5.9
		c0.6,1.7,1.6,3.4,2.7,4.8c1.8,2.1,4,3.7,6.6,4.8c3.3,1.3,6.7,2,10.2,1.9H224.3z"/>
	<path class="st1" d="M132.9,217.7l-0.5,1.1c-2.6,5-6.6,9.2-11.5,12c-5.6,3-11.8,4.5-18.1,4.3c-7.4,0.4-14.7-1.7-20.8-5.9
		c-3.9-2.9-7.1-6.8-9.3-11.2c-2.3-4.2-3.6-8.9-3.6-13.7c0-2.4,0.8-4.8,2.2-6.7c1.3-1.8,3.4-2.8,5.6-2.7c1.8,0,3.5,0.8,4.6,2.2
		c1.5,1.9,2.6,4.1,3.2,6.4c0.8,2.9,2,5.6,3.4,8.3c1.2,2.3,3.1,4.2,5.3,5.6c2.7,1.6,5.8,2.4,9,2.2c4.6,0.3,9-1.4,12.4-4.5
		c1.4-1.2,2.5-2.7,3.4-4.3c4.3,3.5,9.4,5.9,14.9,7L132.9,217.7z M109.2,190.1L109.2,190.1c-3.2-1.2-6.4-2.3-9.7-3.1
		c-5.3-1.6-10.4-3.6-15.2-6.2c-4-2.4-7.4-5.7-9.7-9.7c-2.6-4.7-3.8-10.1-3.6-15.5c-0.1-5.4,1.2-10.7,3.9-15.5
		c2.6-4.5,6.5-8.1,11.2-10.4c5.2-2.5,11-3.8,16.8-3.7c4.6-0.1,9.2,0.7,13.4,2.4c3.5,1.5,6.7,3.7,9.5,6.4c2.3,2.5,4.2,5.4,5.6,8.5
		c0.9,2.8,1.4,5.7,1.2,8.6c0.1,2.5-0.6,5-1.9,7.1c-1.2,1.9-3.3,3.1-5.6,3.1c-1.7,0.1-3.4-0.7-4.5-2c-1.3-1.7-2.4-3.6-3.2-5.6
		c-1.2-3.5-3.1-6.7-5.6-9.4c-2.9-2.5-6.6-3.7-10.4-3.4c-3.8-0.2-7.6,1.1-10.5,3.6c-2.7,2.1-4.2,5.4-4.2,8.8c-0.1,2,0.4,3.9,1.5,5.6
		c1,1.6,2.3,3,3.9,4c1.5,1.1,3.1,1.9,4.8,2.6c1.8,0.6,4.5,1.6,8.2,2.7c4.4,1.3,8.8,2.8,13,4.6l2.1,1c-5.6,3.7-9.5,9.5-10.8,16.1
		L109.2,190.1z"/>
	<path class="st0" d="M109.1,130c-0.7,4.1-4.2,7.1-8.4,7.1c-4.2,0-7.7-3-8.4-7.1v-13.4v0c0.7-4.1,4.2-7.1,8.4-7.1
		c4.2,0,7.7,3,8.4,7.1V130z"/>
	<path class="st0" d="M109.1,241.7c-0.7,4.1-4.2,7.1-8.4,7.1c-4.2,0-7.7-3-8.4-7.1v-13.4c0.7-4.1,4.2-7.1,8.4-7.1
		c4.2,0,7.7,3,8.4,7.1V241.7z"/>
	<path class="st0" d="M466.8,2.2l-55.5-0.6c-7.7,0-7.7,16.1,0,16.1l55.5,0.6C474.4,18.6,474.4,2.6,466.8,2.2z"/>
	<path class="st0" d="M483.6,203.8l-55.5-0.6c-7.7,0-7.7,16.1,0,16.1l55.5,0.6C491.2,220.2,491.2,204.2,483.6,203.8z"/>
	<path class="st0" d="M226,209.4l-55.5-0.6c-7.7,0-7.7,16.1,0,16.1l55.5,0.6C233.6,225.8,233.6,209.8,226,209.4z"/>
</g>
</svg>
