<?xml version="1.0" encoding="utf-8"?>
<!-- Generator: Adobe Illustrator 24.1.2, SVG Export Plug-In . SVG Version: 6.00 Build 0)  -->
<svg version="1.1" id="Layer_1" xmlns="http://www.w3.org/2000/svg" xmlns:xlink="http://www.w3.org/1999/xlink" x="0px" y="0px"
	 viewBox="0 0 425.6 425.6" style="enable-background:new 0 0 425.6 425.6;" xml:space="preserve">
<style type="text/css">
	.st0{fill:#5c5c5c;}
</style>
<g>
	<path class="st0" d="M122.5,425.6h175c32.5,0,63.6-13,86.6-35.9s35.9-54.1,35.9-86.6V189.4c0-6.3-3.3-12-8.8-15.2s-12.1-3.1-17.5,0
		s-8.8,8.9-8.8,15.2v113.8c0,23.2-9.3,45.4-25.7,61.8s-38.6,25.6-61.8,25.7h-175c-23.2,0-45.4-9.3-61.8-25.7S35,326.3,35,303.1v-175
		c0-23.2,9.3-45.4,25.7-61.8s38.6-25.6,61.8-25.7h113.8c6.3,0,12-3.3,15.2-8.8s3.1-12.1,0-17.5s-8.9-8.8-15.2-8.8H122.5
		c-32.5,0-63.6,13-86.6,35.9S0,95.6,0,128.1v175c0,32.5,13,63.6,35.9,86.6S90,425.6,122.5,425.6z"/>
	<path class="st0" d="M132.7,219.4l-4.4,48.7c-0.7,7.5,1.8,15,6.9,20.6s12.3,8.8,19.9,8.8c0.8,0,1.6,0,2.5-0.1l48.6-4.4h0
		c12.9-1.2,25-6.8,34.1-16l125.2-125.1l47.4-47.4c8.2-8.2,12.8-19.3,12.8-30.9c0-11.6-4.6-22.7-12.8-30.9L383,12.8
		C374.8,4.6,363.7,0,352.1,0c-11.6,0-22.7,4.6-30.9,12.8l-47.4,47.3L148.7,185.3C139.5,194.5,133.8,206.5,132.7,219.4L132.7,219.4z
		 M345.9,37.5c1.6-1.6,3.9-2.6,6.2-2.6c2.3,0,4.6,0.9,6.2,2.6l29.8,29.8c1.6,1.6,2.6,3.9,2.6,6.2c0,2.3-0.9,4.5-2.6,6.2l-22.6,22.6
		l-42.2-42.2L345.9,37.5z M167.5,222.6c0.4-4.7,2.5-9.2,5.9-12.5L298.5,85l42.2,42.2L215.6,252.3c-3.4,3.4-7.8,5.4-12.6,5.9
		l-39.1,3.6L167.5,222.6z"/>
</g>
</svg>
