<?xml version="1.0" encoding="utf-8"?>
<!-- Generator: Adobe Illustrator 24.1.2, SVG Export Plug-In . SVG Version: 6.00 Build 0)  -->
<svg version="1.1" id="Layer_1" xmlns="http://www.w3.org/2000/svg" xmlns:xlink="http://www.w3.org/1999/xlink" x="0px" y="0px"
	 viewBox="0 0 548.2 417.8" style="enable-background:new 0 0 548.2 417.8;" xml:space="preserve">
<style type="text/css">
	.st0{fill:#fff;}
</style>
<g>
	<path class="st0" d="M484.1,0H64.2c-17,0-33.3,6.8-45.3,18.8C6.8,30.8,0,47.1,0,64.2v289.5c0,17,6.8,33.3,18.8,45.3
		c12,12,28.3,18.8,45.3,18.8h419.9c17,0,33.3-6.8,45.3-18.8c12-12,18.8-28.3,18.8-45.3V64.2c0-17-6.8-33.3-18.8-45.3
		C517.4,6.8,501.1,0,484.1,0L484.1,0z M526.7,369.2L379.9,222.4L529.4,72.9v280.8C529.4,359,528.5,364.2,526.7,369.2L526.7,369.2z
		 M64.2,18.8h419.9c9.3,0,18.5,2.9,26.1,8.3c7.6,5.4,13.4,13,16.6,21.8L323.4,252.3c-13.1,13.1-30.8,20.4-49.3,20.4
		c-18.5,0-36.2-7.3-49.3-20.4L21.5,48.9c3.2-8.8,8.9-16.4,16.6-21.8C45.7,21.7,54.8,18.8,64.2,18.8L64.2,18.8z M18.8,353.6V72.9
		l149.5,149.5L21.6,369.2v0C19.8,364.2,18.8,358.9,18.8,353.6L18.8,353.6z M484.1,399l-419.9,0c-12.1,0-23.8-4.9-32.3-13.6
		l149.8-149.7l29.9,29.9h0c16.6,16.6,39.1,25.9,62.6,25.9s46-9.3,62.6-25.9l29.9-29.9l149.8,149.8C507.8,394.1,496.2,399,484.1,399
		L484.1,399z"/>
</g>
</svg>
