<?xml version="1.0" encoding="utf-8"?>
<!-- Generator: Adobe Illustrator 24.1.2, SVG Export Plug-In . SVG Version: 6.00 Build 0)  -->
<svg version="1.1" id="Layer_1" xmlns="http://www.w3.org/2000/svg" xmlns:xlink="http://www.w3.org/1999/xlink" x="0px" y="0px"
	 viewBox="0 0 420 420" style="enable-background:new 0 0 420 420;" xml:space="preserve">
<style type="text/css">
	.st0{fill:#1F3D83;}
</style>
<g>
	<path class="st0" d="M210,0c58,0,110.5,23.5,148.5,61.5c38,38,61.5,90.5,61.5,148.5c0,58-23.5,110.5-61.5,148.5
		c-38,38-90.5,61.5-148.5,61.5c-58,0-110.5-23.5-148.5-61.5C23.5,320.5,0,268,0,210C0,152,23.5,99.5,61.5,61.5
		C99.5,23.5,152,0,210,0L210,0z M349.2,70.8C313.6,35.2,264.4,13.1,210,13.1c-54.4,0-103.6,22.1-139.2,57.7
		C35.2,106.4,13.1,155.6,13.1,210c0,54.4,22.1,103.6,57.7,139.2c35.6,35.6,84.8,57.7,139.2,57.7c54.4,0,103.6-22.1,139.2-57.7
		c35.6-35.6,57.7-84.8,57.7-139.2C406.9,155.6,384.8,106.4,349.2,70.8L349.2,70.8z"/>
	<path class="st0" d="M210,30.6c49.5,0,94.4,20.1,126.9,52.6c32.5,32.5,52.6,77.4,52.6,126.9c0,49.5-20.1,94.4-52.6,126.9
		c-32.5,32.5-77.4,52.6-126.9,52.6c-49.5,0-94.4-20.1-126.9-52.6c-32.5-32.5-52.6-77.4-52.6-126.9c0-49.5,20.1-94.4,52.6-126.9
		C115.6,50.7,160.5,30.6,210,30.6L210,30.6z M327.6,92.4C297.5,62.3,255.9,43.7,210,43.7c-45.9,0-87.5,18.6-117.6,48.7
		c-30.1,30.1-48.7,71.7-48.7,117.6c0,45.9,18.6,87.5,48.7,117.6c30.1,30.1,71.7,48.7,117.6,48.7c45.9,0,87.5-18.6,117.6-48.7
		c30.1-30.1,48.7-71.7,48.7-117.6C376.3,164.1,357.7,122.6,327.6,92.4z"/>
	<path class="st0" d="M230.7,125.3c-16,0-29.4,3.9-40.4,11.6c-6.5,4.6-12.4,11.1-17.6,19.4c-5.3,8.7-8.5,17-9.4,24.8h97.5l-3.9,19.1
		h-96c-0.1,2-0.2,3.9-0.2,5.7c0,7.4,0.1,11.7,0.2,13.2h92l-4,19.2H164c4,21.8,13.7,37.3,28.9,46.5c11,6.6,22.9,9.8,35.6,9.8
		c17.8,0,31.7-4.7,41.7-14v29.4c-11.9,5.6-25.1,8.3-39.5,8.3c-43.1,0-72.2-17.9-87.4-53.7c-3-7.3-5.7-16-7.9-26.3h-21.9l4-19.2h15
		c-0.3-4-0.4-8.4-0.4-13c0-1.9,0.1-3.9,0.2-5.8h-18.8l4-19.1h16.6c5.9-31.1,21.2-53.4,46.2-66.9c15.3-8.4,32.2-12.6,50.8-12.6
		c17.7,0,32.6,3.9,44.8,11.6l-5.7,26.6C258.5,130.2,245.3,125.3,230.7,125.3L230.7,125.3z"/>
</g>
</svg>
