<svg xmlns="http://www.w3.org/2000/svg" version="1.1" xmlns:xlink="http://www.w3.org/1999/xlink" xmlns:svgjs="http://svgjs.com/svgjs" width="1440" height="560" preserveAspectRatio="none" viewBox="0 0 1440 560"><g mask="url(&quot;#SvgjsMask1003&quot;)" fill="none"><rect width="1440" height="560" x="0" y="0" fill="rgba(226, 175, 72, 1)"></rect><path d="M0,449.654C88.798,462.375,180.22,445.694,259.698,404.097C343.614,360.177,421.843,296.734,458.801,209.528C495.377,123.224,468.988,27.211,458.918,-65.982C448.466,-162.718,470.534,-279.821,398.821,-345.581C326.425,-411.967,205.234,-350.819,112.616,-383.535C11.514,-419.247,-55.342,-568.752,-159.366,-542.75C-261.908,-517.119,-265.847,-367.576,-318.313,-275.82C-359.311,-204.119,-404.864,-139.679,-434.026,-62.403C-470.685,34.739,-560.222,142.001,-510.358,233.073C-459.395,326.152,-313.596,294.507,-215.91,335.962C-139.487,368.394,-82.181,437.881,0,449.654" fill="#d09621"></path><path d="M1440 1200.4940000000001C1557.161 1181.826 1608.1100000000001 1040.989 1709.079 978.696 1812.929 914.625 1964.205 930.697 2036.563 832.441 2110.926 731.463 2102.102 591.489 2085.794 467.149 2069.3450000000003 341.733 2023.9270000000001 221.33800000000002 1943.596 123.63099999999997 1861.955 24.331000000000017 1758.2930000000001-78.51700000000005 1630.033-87.19200000000001 1504.162-95.70600000000002 1408.909 17.977999999999952 1299.07 80.03800000000001 1215.683 127.15199999999999 1123.996 159.483 1062.901 233.24200000000002 1002.6089999999999 306.03200000000004 995.697 403.791 958.8199999999999 490.817 906.491 614.309 767.182 722.087 800.727 851.946 833.103 977.281 995.8720000000001 1012.261 1109.526 1074.228 1215.202 1131.845 1321.136 1219.434 1440 1200.4940000000001" fill="#eac479"></path></g><defs><mask id="SvgjsMask1003"><rect width="1440" height="560" fill="#ffffff"></rect></mask></defs></svg>