<svg xmlns="http://www.w3.org/2000/svg" version="1.1" xmlns:xlink="http://www.w3.org/1999/xlink" xmlns:svgjs="http://svgjs.com/svgjs" width="1440" height="560" preserveAspectRatio="none" viewBox="0 0 1440 560"><g mask="url(&quot;#SvgjsMask1024&quot;)" fill="none"><rect width="1440" height="560" x="0" y="0" fill="url(#SvgjsLinearGradient1025)"></rect><path d="M0 0L589.49 0L0 31.05z" fill="rgba(255, 255, 255, .1)"></path><path d="M0 31.05L589.49 0L634.1 0L0 289.75z" fill="rgba(255, 255, 255, .075)"></path><path d="M0 289.75L634.1 0L713.76 0L0 400.11z" fill="rgba(255, 255, 255, .05)"></path><path d="M0 400.11L713.76 0L1085.1 0L0 462.38z" fill="rgba(255, 255, 255, .025)"></path><path d="M1440 560L930.2 560L1440 535.21z" fill="rgba(0, 0, 0, .1)"></path><path d="M1440 535.21L930.2 560L462.11000000000007 560L1440 446.61z" fill="rgba(0, 0, 0, .075)"></path><path d="M1440 446.61L462.11 560L373.68 560L1440 445.74z" fill="rgba(0, 0, 0, .05)"></path><path d="M1440 445.74L373.68000000000006 560L338.18000000000006 560L1440 442.18z" fill="rgba(0, 0, 0, .025)"></path></g><defs><mask id="SvgjsMask1024"><rect width="1440" height="560" fill="#ffffff"></rect></mask><linearGradient x1="84.72%" y1="139.29%" x2="15.28%" y2="-39.29%" gradientUnits="userSpaceOnUse" id="SvgjsLinearGradient1025"><stop stop-color="#0e2a47" offset="0"></stop><stop stop-color="#00459e" offset="1"></stop></linearGradient></defs></svg>