<?xml version="1.0" encoding="utf-8"?>
<!-- Generator: Adobe Illustrator 24.1.2, SVG Export Plug-In . SVG Version: 6.00 Build 0)  -->
<svg version="1.1" id="Layer_1" xmlns="http://www.w3.org/2000/svg" xmlns:xlink="http://www.w3.org/1999/xlink" x="0px" y="0px"
	 viewBox="0 0 390.5 390.7" style="enable-background:new 0 0 390.5 390.7;" xml:space="preserve">
<style type="text/css">
	.st0{fill:#FF6873;}
</style>
<g>
	<path class="st0" d="M333.4,57.1v0.1C298,21.8,249.2,0,195.2,0C141.9,0,93.3,21.5,58,56.4l-0.7,0.7C21.9,92.5,0,141.4,0,195.3
		c0,53.4,21.7,101.9,56.3,137.2l1,0.9c35.4,35.3,84.2,57.3,138,57.3c53.9,0,102.8-22,138.2-57.3v-0.1c35.4-35.4,57.1-84.1,57.1-138
		C390.6,141.4,368.8,92.5,333.4,57.1L333.4,57.1z M312.2,312.1L312.2,312.1L312.2,312.1c-30,30-71.3,48.5-116.9,48.5
		c-45.6,0-86.8-18.6-116.9-48.5l-0.7-0.5C48.2,281.7,30,240.6,30,195.3c0-45.6,18.4-87,48.4-116.8l0.8-0.8
		c29.7-29.3,70.9-47.7,116.1-47.7c45.6,0,87,18.4,116.9,48.4c30,29.9,48.4,71.2,48.4,116.9C360.5,240.9,342.1,282.2,312.2,312.1
		L312.2,312.1z"/>
	<path class="st0" d="M307.2,180.2H83.3c-8.3,0-15.1,6.8-15.1,15c0,8.2,6.7,15.1,15.1,15.1h223.9c8.3,0,15-6.8,15-15.1
		C322.2,187,315.5,180.2,307.2,180.2z"/>
</g>
</svg>
