<?xml version="1.0" encoding="utf-8"?>
<!-- Generator: Adobe Illustrator 24.1.2, SVG Export Plug-In . SVG Version: 6.00 Build 0)  -->
<svg version="1.1" id="Layer_1" xmlns="http://www.w3.org/2000/svg" xmlns:xlink="http://www.w3.org/1999/xlink" x="0px" y="0px"
	 viewBox="0 0 224 224" style="enable-background:new 0 0 224 224;" xml:space="preserve">
<style type="text/css">
	.st0{fill:#E2A324;}
</style>
<g>
	<path class="st0" d="M112,0C50.2,0,0,50.2,0,112s50.2,112,112,112s112-50.2,112-112S173.8,0,112,0z M112,212.8
		c-55.6,0-100.8-45.2-100.8-100.8C11.2,56.4,56.4,11.2,112,11.2c55.6,0,100.8,45.2,100.8,100.8C212.8,167.6,167.6,212.8,112,212.8z
		 M173.6,89.6H50.4c-3.1,0-5.6,2.5-5.6,5.6v33.6c0,3.1,2.5,5.6,5.6,5.6h123.2c3.1,0,5.6-2.5,5.6-5.6V95.2
		C179.2,92.1,176.7,89.6,173.6,89.6L173.6,89.6z M168,123.2H56v-22.4h112V123.2z"/>
</g>
</svg>
