<?xml version="1.0" encoding="utf-8"?>
<!-- Generator: Adobe Illustrator 24.1.2, SVG Export Plug-In . SVG Version: 6.00 Build 0)  -->
<svg version="1.1" id="Layer_1" xmlns="http://www.w3.org/2000/svg" xmlns:xlink="http://www.w3.org/1999/xlink" x="0px" y="0px"
	 viewBox="0 0 559.1 325" style="enable-background:new 0 0 559.1 325;" xml:space="preserve">
<style type="text/css">
	.st0{fill:#1F3D83;}
</style>
<g>
	<path class="st0" d="M279.6,38.1c-68.6,0-124.4,55.8-124.4,124.4S211,286.9,279.6,286.9c68.6,0,124.4-55.8,124.4-124.4
		S348.1,38.1,279.6,38.1z M279.6,268.2c-58.3,0-105.7-47.4-105.7-105.7c0-58.3,47.4-105.7,105.7-105.7
		c58.3,0,105.7,47.4,105.7,105.7C385.3,220.8,337.9,268.2,279.6,268.2z"/>
	<path class="st0" d="M537.7,0H21.4C9.6,0,0,9.6,0,21.4v282.1C0,315.4,9.6,325,21.4,325h516.3c11.8,0,21.4-9.6,21.4-21.4V21.4
		C559.1,9.6,549.5,0,537.7,0L537.7,0z M501.6,306.3H57.5c-3.8-19.1-19-33.8-38.9-37.4V56.1c19.8-3.6,35-18.2,38.9-37.4h444.1
		c3.8,19.2,19,33.8,38.9,37.4V269C520.6,272.5,505.4,287.2,501.6,306.3L501.6,306.3z M540.4,21.4v15.2c-9.3-2.7-16.2-9.1-19.2-17.9
		h16.5C539.2,18.7,540.4,19.9,540.4,21.4L540.4,21.4z M21.4,18.7h16.5c-3,8.8-9.9,15.2-19.2,17.9V21.4
		C18.7,19.9,19.9,18.7,21.4,18.7L21.4,18.7z M18.7,303.6v-15.1c9.3,2.7,16.2,9.1,19.2,17.9H21.4C19.9,306.3,18.7,305.1,18.7,303.6
		L18.7,303.6z M537.7,306.3h-16.5c3-8.8,9.9-15.2,19.2-17.9v15.1C540.4,305.1,539.2,306.3,537.7,306.3L537.7,306.3z"/>
	<path class="st0" d="M255.2,111.9c4.5,0,8.5,0.7,12,2.1c3.6,1.4,6.6,3.4,9.2,5.9c2.5,2.5,4.5,5.4,5.9,8.7c1.3,3.3,2,6.8,2,10.6
		c0,5.9-1.2,10.9-3.7,15.2c-2.4,4.3-6.5,7.5-12,9.8v0.3c2.7,0.7,4.9,1.9,6.7,3.4c1.8,1.5,3.2,3.3,4.3,5.4s1.9,4.4,2.4,6.9
		c0.5,2.5,0.9,5,1.1,7.5c0.1,1.6,0.2,3.4,0.3,5.6s0.3,4.3,0.5,6.6c0.2,2.2,0.6,4.3,1.1,6.3c0.5,2,1.3,3.7,2.3,5.1h-21.8
		c-1.2-3.1-2-6.9-2.2-11.3c-0.3-4.4-0.7-8.5-1.3-12.5c-0.7-5.2-2.3-9-4.7-11.4c-2.4-2.4-6.3-3.6-11.8-3.6l-21.9,0v38.9l-21.9,0
		v-99.4L255.2,111.9z M247.5,156.9c5,0,8.8-1.1,11.3-3.3c2.5-2.2,3.8-5.9,3.8-10.9c0-4.8-1.3-8.3-3.8-10.5
		c-2.5-2.2-6.3-3.3-11.3-3.3h-24v28L247.5,156.9z"/>
	<path class="st0" d="M316.7,193.4c0.9,1.5,2,2.8,3.4,3.8s3,1.7,4.8,2.2c1.8,0.5,3.7,0.7,5.6,0.7c1.4,0,2.8-0.2,4.4-0.5
		c1.5-0.3,2.9-0.8,4.2-1.5c1.3-0.7,2.3-1.6,3.1-2.8c0.8-1.2,1.3-2.6,1.3-4.4c0-3-2-5.2-5.9-6.7c-3.9-1.5-9.4-3-16.5-4.5
		c-2.9-0.7-5.7-1.4-8.4-2.3c-2.8-0.9-5.2-2-7.3-3.5c-2.1-1.4-3.9-3.2-5.2-5.4c-1.3-2.2-2-4.9-2-8c0-4.6,0.9-8.4,2.7-11.4
		c1.8-3,4.2-5.3,7.2-7c3-1.7,6.3-2.9,10-3.6c3.7-0.7,7.5-1.1,11.4-1.1c3.9,0,7.7,0.4,11.3,1.1s6.9,2,9.8,3.8c2.9,1.8,5.3,4.1,7.2,7
		c1.9,2.9,3,6.6,3.4,11.1h-18.8c-0.3-3.8-1.7-6.4-4.3-7.7c-2.6-1.3-5.7-2-9.2-2c-1.1,0-2.3,0.1-3.6,0.2s-2.5,0.4-3.5,0.9
		c-1.1,0.5-2,1.1-2.7,2c-0.7,0.9-1.1,2.1-1.1,3.5c0,1.8,0.7,3.2,2,4.3c1.3,1.1,3,2,5.1,2.7c2.1,0.7,4.5,1.3,7.2,1.9
		c2.7,0.6,5.4,1.2,8.2,1.8c2.9,0.7,5.7,1.4,8.4,2.4s5.2,2.1,7.3,3.7c2.1,1.5,3.9,3.4,5.2,5.7c1.3,2.3,2,5.1,2,8.4
		c0,4.7-1,8.7-2.8,11.9c-1.9,3.2-4.4,5.8-7.4,7.7c-3.1,1.9-6.6,3.3-10.5,4.1c-3.9,0.8-8,1.2-12,1.2c-4.2,0-8.3-0.4-12.3-1.3
		c-4-0.8-7.5-2.2-10.6-4.2c-3.1-2-5.7-4.5-7.7-7.7c-2-3.2-3.1-7.2-3.3-12h18.8C315.4,190.1,315.8,191.9,316.7,193.4L316.7,193.4z"/>
</g>
</svg>
