<?xml version="1.0" encoding="utf-8"?>
<!-- Generator: Adobe Illustrator 24.1.2, SVG Export Plug-In . SVG Version: 6.00 Build 0)  -->
<svg version="1.1" id="Layer_1" xmlns="http://www.w3.org/2000/svg" xmlns:xlink="http://www.w3.org/1999/xlink" x="0px" y="0px"
	 viewBox="0 0 504 504" style="enable-background:new 0 0 504 504;" xml:space="preserve">
<style type="text/css">
	.st0{fill:#E99C06;}
</style>
<g>
	<path class="st0" d="M252,0C113.1,0,0,113.1,0,252s113.1,252,252,252s252-113,252-252S391,0,252,0z M252,476
		C128.5,476,28,375.5,28,252S128.5,28,252,28s224,100.5,224,224S375.5,476,252,476z"/>
	<path class="st0" d="M336,238h-70v-70c0-7.7-6.3-14-14-14s-14,6.3-14,14v70h-70c-7.7,0-14,6.3-14,14s6.3,14,14,14h70v70
		c0,7.7,6.3,14,14,14s14-6.3,14-14v-70h70c7.7,0,14-6.3,14-14S343.7,238,336,238z"/>
</g>
</svg>
