<?xml version="1.0" encoding="utf-8"?>
<!-- Generator: Adobe Illustrator 24.1.2, SVG Export Plug-In . SVG Version: 6.00 Build 0)  -->
<svg version="1.1" id="Layer_1" xmlns="http://www.w3.org/2000/svg" xmlns:xlink="http://www.w3.org/1999/xlink" x="0px" y="0px"
	 viewBox="0 0 414.4 414.4" style="enable-background:new 0 0 414.4 414.4;" xml:space="preserve">
<style type="text/css">
	.st0{fill:#1F3D83;}
</style>
<g>
	<path class="st0" d="M207.2,0C151.8,0,99.7,21.3,60.5,60.5C21.3,99.7,0,151.8,0,207.2s21.3,107.5,60.5,146.7s91.3,60.5,146.7,60.5
		c55.4,0,107.5-21.3,146.7-60.5c39.2-39.2,60.5-91.3,60.5-146.7c0-55.4-21.3-107.5-60.5-146.7C314.7,21.3,262.6,0,207.2,0z
		 M337.7,337.7C303,373,256.5,392,207.2,392s-95.8-19-130.5-54.3s-54.3-81.2-54.3-130.5s19-95.8,54.3-130.5s81.2-54.3,130.5-54.3
		s95.8,19,130.5,54.3S392,157.9,392,207.2S373,303,337.7,337.7L337.7,337.7z"/>
	<path class="st0" d="M266,273.3h-85.1c5-11.2,7.3-22.4,7.3-34.2c0-6.2-0.6-12.3-1.1-18.5h41.4c7.8,0,14-6.2,14-14s-6.2-14-14-14
		l-43.7,0c-0.6-4.5-1.1-9-1.1-14c-1.7-25.8,16.2-37,31.9-38.6c9-1.1,17.4,1.1,24.1,5.6c7.3,5,11.8,13.4,12.3,24.1
		c0.6,3.9,2.2,6.7,5,9.5c2.8,2.2,6.2,3.4,10.1,3.4c7.3-0.6,12.9-7.3,12.3-15.1c-1.7-18.5-10.1-34.2-23.5-43.7
		c-10.6-7.3-23.5-11.2-37.5-11.2c-1.7,0-3.4,0-5.6,0.6c-29.7,3.4-58.8,27.4-56.6,67.2c0,4.5,0.6,8.4,1.1,12.3H149
		c-7.8,0-14,6.2-14,14s6.2,14,14,14h11.2c0.6,6.7,1.1,12.9,1.1,18.5c0,12.9-2.2,24.1-12.9,40.3c-4.5,6.2-2.8,14.6,3.4,19
		c2.2,1.7,5,2.2,7.8,2.2H266c3.9,0,7.3-1.1,9.5-3.9c2.2-2.8,3.9-6.2,3.9-9.5C280,280,273.8,273.8,266,273.3L266,273.3z"/>
</g>
</svg>
