<?xml version="1.0" encoding="utf-8"?>
<!-- Generator: Adobe Illustrator 24.1.2, SVG Export Plug-In . SVG Version: 6.00 Build 0)  -->
<svg version="1.1" id="Layer_1" xmlns="http://www.w3.org/2000/svg" xmlns:xlink="http://www.w3.org/1999/xlink" x="0px" y="0px"
	 viewBox="0 0 496.1 495.7" style="enable-background:new 0 0 496.1 495.7;" xml:space="preserve">
<style type="text/css">
	.st0{fill:#FFFFFF;}
</style>
<g>
	<path class="st0" d="M58.9,339.3c15.1,0,15.1,23.5,0,23.5h-37v111h100.9v-38.7c0-13.5,23.5-13.5,23.5,0v38.7H227v-38.7
		c0-13.5,21.9-13.5,21.9,0v38.7h80.7v-38.7c0-13.5,23.5-13.5,23.5,0v38.7h80.7v-38.7c0-13.5,21.9-13.5,21.9,0v38.7H486
		c13.5,0,13.5,21.9,0,21.9H0V11.4c0-15.1,21.9-15.1,21.9,0v114.4h37c15.1,0,15.1,23.5,0,23.5h-37v84.1h37c15.1,0,15.1,21.9,0,21.9
		h-37v84.1L58.9,339.3L58.9,339.3z M156.4,290.5l40.4-67.3c-6.7-8.4-10.1-20.2-10.1-30.3c0-28.6,23.5-52.1,50.4-52.1
		c28.6,0,50.4,23.5,50.4,52.1c0,3.4,0,8.4-1.7,11.8l55.5,38.7c6.7-3.4,13.5-5,20.2-5l53.8-126.1l-42-16.8L475.9,9.7l20.2,134.5
		l-43.7-16.8l-52.1,126.1c8.4,10.1,13.5,21.9,13.5,37c0,26.9-21.9,50.4-50.4,50.4c-28.6,0-50.4-23.5-50.4-50.4
		c0-6.7,1.7-11.8,3.4-16.8l-53.8-37c-8.4,6.7-20.2,8.4-32,6.7L190,310.7c5,8.4,8.4,18.5,8.4,30.3c0,26.9-21.9,50.4-48.8,50.4
		c-28.6,0-50.4-23.5-50.4-50.4C99.2,310.7,124.4,285.5,156.4,290.5L156.4,290.5z"/>
</g>
</svg>
