<?xml version="1.0" encoding="utf-8"?>
<!-- Generator: Adobe Illustrator 24.1.2, SVG Export Plug-In . SVG Version: 6.00 Build 0)  -->
<svg version="1.1" id="Layer_1" xmlns="http://www.w3.org/2000/svg" xmlns:xlink="http://www.w3.org/1999/xlink" x="0px" y="0px"
	 viewBox="0 0 513.3 513.3" style="enable-background:new 0 0 513.3 513.3;" xml:space="preserve">
<style type="text/css">
	.st0{fill:#1F3D83;}
</style>
<g>
	<path class="st0" d="M291.7,280c0,6.4-5.2,11.7-11.7,11.7c-6.4,0-11.7-5.2-11.7-11.7c0-6.4,5.2-11.7,11.7-11.7
		C286.4,268.3,291.7,273.6,291.7,280"/>
	<path class="st0" d="M315,326.7h-11.7c-6.4,0-11.7-5.2-11.7-11.7c0-6.4,5.2-11.7,11.7-11.7H315h0c12.4,0,24.2-4.9,33-13.7
		c8.8-8.8,13.7-20.6,13.7-33V245c0-6.4,5.2-11.7,11.7-11.7c6.4,0,11.7,5.2,11.7,11.7v11.7c0,18.6-7.4,36.4-20.5,49.5
		C351.4,319.3,333.6,326.7,315,326.7L315,326.7z"/>
	<path class="st0" d="M221.7,210c-12.5,0-24.1,6.7-30.3,17.5c-6.3,10.8-6.3,24.2,0,35c6.3,10.8,17.8,17.5,30.3,17.5
		c4,0,7.9-0.7,11.7-2c-0.7,14.6-9.1,27.7-22.1,34.4c-13,6.7-28.5,6-40.8-1.9s-19.4-21.7-18.8-36.3v-5.8c0-6.4-5.2-11.7-11.7-11.7
		c-6.4,0-11.7,5.2-11.7,11.7v5.8c0,22.9,12.2,44.1,32.1,55.6c19.9,11.5,44.3,11.5,64.2,0c19.9-11.5,32.1-32.6,32.1-55.6V245
		c0-9.3-3.7-18.2-10.3-24.7C239.8,213.7,230.9,210,221.7,210L221.7,210z M221.7,256.7c-4.7,0-9-2.8-10.8-7.2
		c-1.8-4.4-0.8-9.4,2.5-12.7c3.3-3.3,8.4-4.3,12.7-2.5c4.4,1.8,7.2,6.1,7.2,10.8c0,3.1-1.2,6.1-3.4,8.3S224.8,256.7,221.7,256.7
		L221.7,256.7z"/>
	<path class="st0" d="M210,186.7c0,6.4-5.2,11.7-11.7,11.7c-6.4,0-11.7-5.2-11.7-11.7s5.2-11.7,11.7-11.7
		C204.8,175,210,180.2,210,186.7"/>
	<path class="st0" d="M256.7,186.7c0,6.4-5.2,11.7-11.7,11.7c-6.4,0-11.7-5.2-11.7-11.7S238.6,175,245,175
		C251.4,175,256.7,180.2,256.7,186.7"/>
	<path class="st0" d="M256.7,513.3c-68.1,0-133.4-27-181.5-75.2C27,390,0,324.7,0,256.7S27,123.3,75.2,75.2
		C123.3,27,188.6,0,256.7,0S390,27,438.2,75.2c48.1,48.1,75.2,113.4,75.2,181.5s-27,133.4-75.2,181.5
		C390,486.3,324.7,513.3,256.7,513.3z M256.7,23.3c-61.9,0-121.2,24.6-165,68.3c-43.8,43.8-68.3,103.1-68.3,165s24.6,121.2,68.3,165
		c43.8,43.8,103.1,68.3,165,68.3s121.2-24.6,165-68.3c43.8-43.8,68.3-103.1,68.3-165c0-41-10.8-81.2-31.3-116.7
		c-20.5-35.5-49.9-64.9-85.4-85.4C337.9,34.1,297.6,23.3,256.7,23.3L256.7,23.3z"/>
</g>
</svg>
