<?xml version="1.0" encoding="utf-8"?>
<!-- Generator: Adobe Illustrator 24.1.2, SVG Export Plug-In . SVG Version: 6.00 Build 0)  -->
<svg version="1.1" id="Layer_1" xmlns="http://www.w3.org/2000/svg" xmlns:xlink="http://www.w3.org/1999/xlink" x="0px" y="0px"
	 viewBox="0 0 401 236.9" style="enable-background:new 0 0 401 236.9;" xml:space="preserve">
<style type="text/css">
	.st0{fill:#FFFFFF;}
</style>
<g>
	<path class="st0" d="M270.4,183.5c-10.2,0-20-3.8-27.6-10.6c-7.6-6.8-12.3-16.2-13.4-26.3s1.7-20.3,7.6-28.5
		c8.4-11.6,22.3-18.1,36.6-17c14.3,1.1,27,9.6,33.5,22.4c6.5,12.8,5.9,28.1-1.6,40.3C298.1,176,284.7,183.5,270.4,183.5L270.4,183.5
		z M270.4,123.5c-6,0-11.7,2.9-15.2,7.8c-3.3,4.6-4.4,10.4-2.9,15.9c1.5,5.5,5.4,10,10.5,12.3s11.1,2.1,16.2-0.4
		c5.1-2.6,8.7-7.3,9.8-12.9c1.2-5.6-0.2-11.3-3.8-15.7C281.4,126,276.1,123.5,270.4,123.5L270.4,123.5z"/>
	<path class="st0" d="M141.1,143c-14.4,0-27.7-7.5-35.2-19.8c-7.5-12.3-8-27.6-1.5-40.3c6.6-12.8,19.3-21.3,33.6-22.4
		c14.3-1.1,28.2,5.3,36.6,17c8.4,11.6,10.2,26.8,4.7,40.1c-5.5,13.3-17.5,22.7-31.7,25C145.5,142.9,143.3,143,141.1,143L141.1,143z
		 M141.1,83c-1-0.1-2-0.1-3,0c-6.5,0.5-12.2,4.4-15.2,10.2c-2.9,5.8-2.7,12.7,0.7,18.3c3.4,5.5,9.4,8.9,15.9,8.9
		c6.5,0,12.5-3.4,15.9-8.9c3.4-5.5,3.7-12.5,0.7-18.3C153.4,87.4,147.6,83.5,141.1,83L141.1,83z"/>
	<path class="st0" d="M41.1,236.9c-10.2,0-20-3.8-27.5-10.6C6,219.5,1.3,210.1,0.2,200c-1.1-10.1,1.7-20.3,7.6-28.5
		c8.1-11.2,21.2-17.6,35-17.1c13.8,0.5,26.4,7.9,33.6,19.6c7.2,11.7,8.1,26.3,2.3,38.8c-5.8,12.5-17.4,21.3-31,23.5
		C45.5,236.7,43.3,236.9,41.1,236.9L41.1,236.9z M26,184.7L26,184.7c-2.9,4-4.1,9.1-3.3,14c0.8,4.9,3.5,9.3,7.5,12.3
		c4,2.9,9.1,4.1,14,3.3c4.9-0.8,9.3-3.5,12.3-7.5c2.9-4,4.1-9.1,3.3-14c-0.8-4.9-3.5-9.3-7.5-12.3c-4-3-9.1-4.2-14-3.4
		C33.3,177.9,28.9,180.6,26,184.7L26,184.7z"/>
	<path class="st0" d="M169.6,114.4l9.7-20.2l66.6,32l-9.7,20.2L169.6,114.4z"/>
	<path class="st0" d="M57.5,172.8l48.1-64l17.9,13.5l-48.1,64L57.5,172.8z"/>
	<path class="st0" d="M359.7,82.4c-10.2,0-20-3.8-27.6-10.6c-7.6-6.8-12.3-16.2-13.4-26.3c-1.1-10.1,1.7-20.3,7.6-28.5
		C334.8,5.4,348.7-1,363,0.1c14.3,1.1,27,9.6,33.5,22.4c6.5,12.8,5.9,28.1-1.6,40.3C387.4,75,374.1,82.5,359.7,82.4L359.7,82.4z
		 M344.5,30.2L344.5,30.2c-2.9,4-4.1,9.1-3.3,14c0.8,4.9,3.5,9.3,7.5,12.3c4,2.9,9.1,4.1,14,3.3c4.9-0.8,9.3-3.5,12.3-7.5
		c2.9-4,4.1-9.1,3.3-14c-0.8-4.9-3.5-9.3-7.5-12.3c-4-3-9.1-4.2-14-3.4C351.8,23.4,347.4,26.2,344.5,30.2L344.5,30.2z"/>
	<path class="st0" d="M280.7,109.5l59.5-51.9L355,74.5l-59.5,51.9L280.7,109.5z"/>
</g>
</svg>
