<?xml version="1.0" encoding="utf-8"?>
<!-- Generator: Adobe Illustrator 24.1.2, SVG Export Plug-In . SVG Version: 6.00 Build 0)  -->
<svg version="1.1" id="Layer_1" xmlns="http://www.w3.org/2000/svg" xmlns:xlink="http://www.w3.org/1999/xlink" x="0px" y="0px"
	 viewBox="0 0 416.4 416.4" style="enable-background:new 0 0 416.4 416.4;" xml:space="preserve">
<style type="text/css">
	.st0{fill:#1F3D83;stroke:#FFFFFF;stroke-width:12;stroke-miterlimit:10;}
</style>
<g>
	<path class="st0" d="M208.2,4.5C95.9,4.5,4.5,95.9,4.5,208.2s91.4,203.7,203.7,203.7s203.7-91.4,203.7-203.7
		C412,95.9,320.6,4.5,208.2,4.5L208.2,4.5z M208.2,376.7c-92.9,0-168.4-75.6-168.4-168.5S115.4,39.7,208.2,39.7
		c92.9,0,168.4,75.6,168.4,168.5C376.7,301.1,301.1,376.7,208.2,376.7L208.2,376.7z"/>
	<path class="st0" d="M273.6,252.7h-28.4c-10.5,0-19.1-5.5-19.1-12.3c0-6.7,8.6-12.3,19.1-12.3h28.4c10.5,0,19.1-6.9,19.1-15.4
		s-8.6-15.4-19.1-15.4h-16.4c-10.5,0-14.3-7.1-8.4-15.8l26.2-38.6c1.9-2.6,3.5-5,4.7-7.2c2.1-2.9,3.3-6.4,3.3-10.2
		c0-9.6-7.8-17.3-17.3-17.3c-6.2,0-11.6,3.3-14.7,8.2c-1.4,1.9-2.8,4.1-4.3,6.3l-29,43.2c-2.6,3.9-6,6-9.4,6.4
		c-3.5-0.4-6.8-2.5-9.4-6.4l-29-43.2c-1.5-2.2-2.9-4.4-4.3-6.3c-3.1-4.9-8.5-8.2-14.7-8.2c-9.6,0-17.3,7.8-17.3,17.3
		c0,3.8,1.2,7.3,3.3,10.2c1.2,2.2,2.8,4.6,4.7,7.2l26.2,38.6c5.9,8.7,2.1,15.8-8.3,15.8h-16.4c-10.5,0-19.1,6.9-19.1,15.4
		s8.6,15.4,19.1,15.4h28.4c10.5,0,19.1,5.5,19.1,12.3c0,6.7-8.6,12.3-19,12.3h-28.4c-10.5,0-19.1,7-19.1,15.6
		c0,8.6,8.6,15.6,19.1,15.6h28.4c10.5,0,19.1,8.6,19.1,19.1v1.1c0,10.3,8,18.8,17.9,19c9.9-0.3,17.9-8.7,17.9-19V303
		c0-10.5,8.6-19.1,19.1-19.1H274c10.5,0,19.1-7,19.1-15.6C292.6,259.7,284.1,252.7,273.6,252.7L273.6,252.7z"/>
</g>
</svg>
