<?xml version="1.0" encoding="utf-8"?>
<!-- Generator: Adobe Illustrator 24.1.2, SVG Export Plug-In . SVG Version: 6.00 Build 0)  -->
<svg version="1.1" id="Layer_1" xmlns="http://www.w3.org/2000/svg" xmlns:xlink="http://www.w3.org/1999/xlink" x="0px" y="0px"
	 viewBox="0 0 525 525" style="enable-background:new 0 0 525 525;" xml:space="preserve">
<style type="text/css">
	.st0{fill:#1F3D83;}
</style>
<g>
	<path class="st0" d="M260.5,0C115.3,0-2,117.3-2,262.5S115.3,525,260.5,525S523,407.8,523,262.5S405.8,0,260.5,0z M260.5,490
		C134.5,490,33,388.5,33,262.5S134.5,35,260.5,35S488,136.5,488,262.5S386.5,490,260.5,490z"/>
	<path class="st0" d="M190.5,87.5c-10.5,0-17.5,7-17.5,17.5v182c0,15.8-15.8,28-35,28s-35-12.3-35-28c0-8.8-7-17.5-17.5-17.5
		S68,278.3,68,287c0,35,31.5,63,70,63s70-28,70-63V105C208,94.5,201,87.5,190.5,87.5z"/>
	<path class="st0" d="M400.5,262.5c0,110.3-50.8,122.5-87.5,122.5c-8.8,0-17.5,8.8-17.5,17.5S304.3,420,313,420
		c56,0,122.5-28,122.5-157.5c0-10.5-8.8-17.5-17.5-17.5S400.5,252,400.5,262.5z"/>
	<path class="st0" d="M365.5,259c0-10.5-8.8-17.5-17.5-17.5s-17.5,7-17.5,17.5s-14,21-35,21s-35-10.5-35-21V105
		c0-10.5-7-17.5-17.5-17.5s-17.5,7-17.5,17.5v154c0,31.5,31.5,56,70,56S365.5,290.5,365.5,259z"/>
	<path class="st0" d="M278,350c0,9.7-7.8,17.5-17.5,17.5S243,359.7,243,350s7.8-17.5,17.5-17.5S278,340.3,278,350"/>
	<path class="st0" d="M330.5,350c0,9.7-7.8,17.5-17.5,17.5s-17.5-7.8-17.5-17.5s7.8-17.5,17.5-17.5S330.5,340.3,330.5,350"/>
</g>
</svg>
