<?xml version="1.0" encoding="utf-8"?>
<!-- Generator: Adobe Illustrator 24.1.2, SVG Export Plug-In . SVG Version: 6.00 Build 0)  -->
<svg version="1.1" id="Layer_1" xmlns="http://www.w3.org/2000/svg" xmlns:xlink="http://www.w3.org/1999/xlink" x="0px" y="0px"
	 viewBox="0 0 569.1 569.1" style="enable-background:new 0 0 569.1 569.1;" xml:space="preserve">
<style type="text/css">
	.st0{fill:#E2A324;stroke:#E2A324;stroke-width:9;stroke-miterlimit:10;}
</style>
<g>
	<path class="st0" d="M174.2,221.3h220.7v14.4H174.2L174.2,221.3z"/>
	<path class="st0" d="M174.2,335.1h220.7v14.4H174.2L174.2,335.1z"/>
	<path class="st0" d="M284.6,4.5c-55.4,0-109.5,16.4-155.6,47.2C82.9,82.4,47,126.2,25.8,177.3C4.6,228.5-0.9,284.8,9.9,339.1
		c10.8,54.3,37.5,104.2,76.6,143.4c39.2,39.2,89.1,65.9,143.4,76.7c54.3,10.8,110.6,5.3,161.8-15.9c51.2-21.2,94.9-57.1,125.7-103.1
		c30.8-46.1,47.2-100.2,47.2-155.6c-0.1-74.2-29.6-145.4-82.1-197.9S358.8,4.6,284.6,4.5L284.6,4.5z M284.6,550
		c-52.5,0-103.9-15.6-147.6-44.7c-43.7-29.2-77.7-70.7-97.8-119.2c-20.1-48.5-25.4-102-15.1-153.5c10.3-51.5,35.6-98.9,72.7-136
		c37.2-37.1,84.5-62.4,136-72.7c51.5-10.2,104.9-5,153.5,15.2c48.5,20.1,90,54.2,119.2,97.9c29.2,43.7,44.7,95.1,44.7,147.6
		C550,355,522,422.4,472.3,472.2C422.5,522,355,550,284.6,550.1L284.6,550z"/>
</g>
</svg>
