<?xml version="1.0" encoding="utf-8"?>
<!-- Generator: Adobe Illustrator 24.1.2, SVG Export Plug-In . SVG Version: 6.00 Build 0)  -->
<svg version="1.1" id="Layer_1" xmlns="http://www.w3.org/2000/svg" xmlns:xlink="http://www.w3.org/1999/xlink" x="0px" y="0px"
	 viewBox="0 0 391.3 504.4" style="enable-background:new 0 0 391.3 504.4;" xml:space="preserve">
<style type="text/css">
	.st0{fill:#E2A324;}
</style>
<g>
	<path class="st0" d="M380.7,95.5l-84.9-84.9C289,3.8,279.7,0,270,0H58.8C43.2,0,28.3,6.2,17.2,17.2C6.2,28.3,0,43.2,0,58.8v386.8
		c0,15.6,6.2,30.5,17.2,41.6c11,11,26,17.2,41.6,17.2h273.7c15.6,0,30.5-6.2,41.6-17.2c11-11,17.2-26,17.2-41.6V121.2
		C391.4,111.6,387.5,102.3,380.7,95.5L380.7,95.5z M363.3,445.6c0,8.2-3.3,16-9,21.8c-5.8,5.8-13.6,9-21.8,9H58.8
		c-8.2,0-16-3.3-21.8-9c-5.8-5.8-9-13.6-9-21.8V58.8c0-8.2,3.3-16,9-21.8c5.8-5.8,13.6-9,21.8-9H270c2.2,0,4.4,0.9,5.9,2.5
		l84.9,84.9c1.6,1.6,2.5,3.7,2.5,5.9L363.3,445.6z"/>
	<path class="st0" d="M154.6,211.4H97.9c-7.7,0-14,6.3-14,14c0,7.7,6.3,14,14,14h28.7v12.5c0,7.7,6.3,14,14,14s14-6.3,14-14v-12.5
		c15.3,0,29.4-8.2,37-21.4c7.6-13.2,7.6-29.5,0-42.7s-21.8-21.4-37-21.4H129c-5.2-0.1-10-2.9-12.6-7.4c-2.6-4.5-2.6-10.1,0-14.6
		c2.6-4.5,7.3-7.4,12.5-7.5h49.4c7.7,0,14-6.3,14-14c0-7.7-6.3-14-14-14h-23.7V83.9c0-7.7-6.3-14-14-14s-14,6.3-14,14v12.6
		c-15,0.8-28.4,9.4-35.5,22.7c-7,13.3-6.6,29.2,1.2,42.1c7.7,12.8,21.6,20.7,36.6,20.7h25.6c4-0.1,7.8,1.4,10.6,4.2
		c2.8,2.8,4.4,6.6,4.4,10.5c0,4-1.6,7.8-4.4,10.5S158.6,211.4,154.6,211.4L154.6,211.4z"/>
	<path class="st0" d="M293.4,308.3H97.9c-7.7,0-14,6.3-14,14s6.3,14,14,14h195.5c7.7,0,14-6.3,14-14S301.2,308.3,293.4,308.3z"/>
	<path class="st0" d="M293.4,392.2H97.9c-7.7,0-14,6.3-14,14c0,7.7,6.3,14,14,14h195.5c7.7,0,14-6.3,14-14
		C307.4,398.5,301.2,392.2,293.4,392.2z"/>
</g>
</svg>
