<?xml version="1.0" encoding="utf-8"?>
<!-- Generator: Adobe Illustrator 24.1.2, SVG Export Plug-In . SVG Version: 6.00 Build 0)  -->
<svg version="1.1" id="Layer_1" xmlns="http://www.w3.org/2000/svg" xmlns:xlink="http://www.w3.org/1999/xlink" x="0px" y="0px"
	 viewBox="0 0 466.7 466.7" style="enable-background:new 0 0 466.7 466.7;" xml:space="preserve">
<style type="text/css">
	.st0{fill:#FFFFFF;}
</style>
<g>
	<path class="st0" d="M9.3,242.7c5.1,0,9.3-4.2,9.3-9.3c0-118.4,96.2-214.7,214.7-214.7C351.7,18.7,448,115,448,233.3
		S351.7,448,233.3,448c-54.3,0-106.4-20.6-146-57.2h30.8c5.2,0,9.3-4.2,9.3-9.3s-4.1-9.3-9.3-9.3l-52.8,0c-0.7,0-1.5,0.1-2.1,0.3
		c-0.6,0.1-1,0.3-1.5,0.5c-0.6,0.2-1.1,0.6-1.6,0.8c-0.6,0.4-1.1,0.8-1.5,1.3c-0.5,0.4-0.7,0.8-1,1.2c-0.4,0.6-0.7,1-0.8,1.6
		c-0.5,1.1-0.7,2.3-0.7,3.5c0,0,0,0.1,0,0.1v52.9c0,5.1,4.1,9.3,9.3,9.3c5.1,0,9.3-4.2,9.3-9.3v-30.1
		c42.9,39.9,99.6,62.3,158.7,62.3c128.6,0,233.3-104.6,233.3-233.3S361.9,0,233.3,0C104.6,0,0,104.6,0,233.3
		C0,238.5,4.1,242.7,9.3,242.7L9.3,242.7z"/>
	<path class="st0" d="M233.3,385.6c84,0,152.3-68.3,152.3-152.3S317.3,81,233.3,81c-84.1,0-152.4,68.3-152.4,152.3
		S149.2,385.6,233.3,385.6z M230.6,242.3c-26.3-7.8-39.7-21.5-39.7-40.4c0-19.4,14.1-35.7,33-39.8v-9.7c0-5.1,4.1-9.3,9.3-9.3
		c5.1,0,9.3,4.2,9.3,9.3v9.7c18.9,4.1,32.9,20.3,32.9,39.8c0,5.1-4.1,9.3-9.3,9.3c-5.1,0-9.3-4.2-9.3-9.3
		c0-12.2-10.5-22.1-23.6-22.1s-23.7,9.9-23.7,22.1c0,6.3,2.7,15.5,26.3,22.5c9.8,2.9,39.7,11.8,39.7,40.4
		c0,19.4-14.1,35.7-32.9,39.8v9.7c0,5.1-4.2,9.3-9.3,9.3c-5.2,0-9.3-4.2-9.3-9.3v-9.7c-18.9-4.1-33-20.3-33-39.8
		c0-5.1,4.1-9.3,9.3-9.3c5.1,0,9.3,4.2,9.3,9.3c0,12.2,10.6,22.1,23.7,22.1s23.6-9.9,23.6-22.1C256.9,257.5,253.9,249.2,230.6,242.3
		z"/>
</g>
</svg>
