<?xml version="1.0" encoding="utf-8"?>
<!-- Generator: Adobe Illustrator 24.1.2, SVG Export Plug-In . SVG Version: 6.00 Build 0)  -->
<svg version="1.1" id="Layer_1" xmlns="http://www.w3.org/2000/svg" xmlns:xlink="http://www.w3.org/1999/xlink" x="0px" y="0px"
	 viewBox="0 0 490 490" style="enable-background:new 0 0 490 490;" xml:space="preserve">
<style type="text/css">
	.st0{fill-rule:evenodd;clip-rule:evenodd;fill:#1F3D83;}
</style>
<g>
	<path class="st0" d="M290.1,187c0,7.1,5.8,12.9,12.9,12.9s12.9-5.8,12.9-12.9c0-16.6-5.8-32.6-16.4-45.3s-25.3-21.4-41.6-24.4v-8.9
		c0-7.1-5.8-12.9-12.9-12.9s-12.9,5.8-12.9,12.9v8.9c-21.9,4-40.6,18.2-50.6,38.1c-9.9,19.9-9.9,43.4,0,63.3s28.7,34,50.6,38.1v89.6
		c-9.3-2.8-17.5-8.5-23.3-16.3s-8.9-17.3-9-27c0-7.1-5.8-12.9-12.9-12.9c-7.1,0-12.9,5.8-12.9,12.9c0,16.6,5.8,32.6,16.4,45.3
		c10.6,12.7,25.3,21.4,41.6,24.4v17.3c0,7.1,5.8,12.9,12.9,12.9s12.9-5.8,12.9-12.9v-17.3c21.9-4,40.6-18.2,50.6-38.1
		c9.9-19.9,9.9-43.4,0-63.3s-28.7-34-50.6-38.1v-89.6c9.3,2.8,17.5,8.5,23.3,16.3C287,167.8,290.1,177.2,290.1,187L290.1,187z
		 M232.1,230.2c-12.5-3.7-22.8-12.7-28.2-24.6c-5.4-11.9-5.4-25.5,0-37.4c5.4-11.9,15.7-20.8,28.2-24.6V230.2z M290.1,303
		c0,9.7-3.1,19.2-9,27c-5.8,7.8-14,13.5-23.3,16.3v-86.5c9.3,2.8,17.5,8.5,23.3,16.3C287,283.8,290.1,293.3,290.1,303L290.1,303z"/>
	<path class="st0" d="M245,0C180,0,117.7,25.8,71.8,71.8C25.8,117.7,0,180,0,245s25.8,127.3,71.8,173.2C117.7,464.2,180,490,245,490
		s127.3-25.8,173.2-71.8C464.2,372.3,490,310,490,245s-25.9-127.3-71.8-173.2S310,0,245,0L245,0z M245,464.2
		c-58.1,0-113.9-23.1-155-64.2s-64.2-96.9-64.2-155S48.9,131.1,90,90s96.9-64.2,155-64.2S358.9,48.9,400,90s64.2,96.9,64.2,155
		S441.1,358.9,400,400S303.1,464.2,245,464.2L245,464.2z"/>
</g>
</svg>
