<?xml version="1.0" encoding="utf-8"?>
<!-- Generator: Adobe Illustrator 24.1.2, SVG Export Plug-In . SVG Version: 6.00 Build 0)  -->
<svg version="1.1" id="Layer_1" xmlns="http://www.w3.org/2000/svg" xmlns:xlink="http://www.w3.org/1999/xlink" x="0px" y="0px"
	 viewBox="0 0 420 367.5" style="enable-background:new 0 0 420 367.5;" xml:space="preserve">
<style type="text/css">
	.st0{fill-rule:evenodd;clip-rule:evenodd;fill:#FFFFFF;}
	.st1{fill:#FFFFFF;}
</style>
<g>
	<path class="st0" d="M245,87.5c0,48.3-39.2,87.5-87.5,87.5S70,135.8,70,87.5S109.2,0,157.5,0S245,39.2,245,87.5z M210,87.5
		c0,29-23.5,52.5-52.5,52.5S105,116.5,105,87.5S128.5,35,157.5,35S210,58.5,210,87.5z"/>
	<path class="st0" d="M0,249.7c0-6.9,3.6-13.2,9.9-15.9c19-8.2,66.1-23.8,147.6-23.8s128.6,15.7,147.6,23.8c6.3,2.7,9.9,9,9.9,15.9
		c0,65.1-52.7,117.8-117.8,117.8h-79.4C52.7,367.5,0,314.8,0,249.7L0,249.7z M117.8,332.5c-41.8,0-76.3-30.9-82-71.1
		c20.7-7,60.2-16.4,121.7-16.4s100.9,9.4,121.7,16.4c-5.7,40.2-40.2,71.1-82,71.1H117.8z"/>
	<path class="st1" d="M251.3,166.3C269.2,145,280,117.5,280,87.5c0-23.5-6.6-45.4-18-64c7.7-2.6,15.9-4.1,24.4-4.1
		c42.2,0,76.4,34.8,76.4,77.8S328.5,175,286.4,175C273.7,175,261.8,171.9,251.3,166.3L251.3,166.3z"/>
	<path class="st1" d="M411.5,327.5c-14.7,6.4-49.3,18.2-107.7,20.3c24.8-29.1,39.8-66.8,39.8-108c0-7.6-3.1-14.8-9.3-19.2
		c-3.4-2.4-7.9-5.4-13.3-8.5c54.9,1.6,99,46.6,99,101.9C420,319.7,416.9,325.1,411.5,327.5L411.5,327.5z"/>
</g>
</svg>
