<?xml version="1.0" encoding="utf-8"?>
<!-- Generator: Adobe Illustrator 24.1.2, SVG Export Plug-In . SVG Version: 6.00 Build 0)  -->
<svg version="1.1" id="Layer_1" xmlns="http://www.w3.org/2000/svg" xmlns:xlink="http://www.w3.org/1999/xlink" x="0px" y="0px"
	 viewBox="0 0 402.1 248.6" style="enable-background:new 0 0 402.1 248.6;" xml:space="preserve">
<style type="text/css">
	.st0{fill:#1F3D83;}
</style>
<g>
	<path class="st0" d="M201,198.2c40.9,0,73.9-33,73.9-73.9c0-40.9-33-73.9-73.9-73.9s-73.9,33-73.9,73.9S160.2,198.2,201,198.2z
		 M201,61.6c34.7,0,62.7,28,62.7,62.7S235.8,187,201,187s-62.7-28-62.7-62.7S166.3,61.6,201,61.6L201,61.6z"/>
	<path class="st0" d="M201,248.6c84.6,0,161.3-46.5,199.9-121.5l1.1-2.8l-1.1-2.8C362.3,46.5,285.6,0,201,0S39.8,46.5,1.1,121.5
		L0,124.3l1.1,2.8C39.8,202.2,116.5,248.6,201,248.6L201,248.6z M201,11.2c79.5,0,151.2,43.1,188.7,113.1
		c-37.5,70-109.2,113.1-188.7,113.1S49.8,194.3,12.3,124.3C49.8,54.3,121.5,11.2,201,11.2L201,11.2z"/>
</g>
</svg>
